<svg width="242" height="242" viewBox="0 0 242 242" fill="none" xmlns="http://www.w3.org/2000/svg">
<g filter="url(#filter0_d_2_4539)">
<rect x="21" y="13" width="200" height="200" rx="20.107" fill="#34A853"/>
<ellipse cx="57.6868" cy="57.7602" rx="57.6868" ry="57.7602" transform="matrix(0.988492 -0.151272 0.164127 0.986439 54.7705 61.6089)" fill="url(#paint0_linear_2_4539)"/>
<path d="M54.5238 119.371C57.7547 120.522 63.1593 118.843 62.7479 119.905C62.3365 120.968 57.7642 122.461 54.5333 121.31C51.3024 120.16 46.1611 118.906 46.5725 117.843C46.9839 116.78 51.2928 118.221 54.5238 119.371Z" fill="url(#paint1_linear_2_4539)"/>
<path d="M185.622 125.111C182.193 125.443 178.113 129.234 177.994 128.107C177.875 126.979 181.294 123.707 184.723 123.374C188.152 123.042 193.344 121.996 193.462 123.123C193.581 124.251 189.051 124.779 185.622 125.111Z" fill="url(#paint2_linear_2_4539)"/>
<path d="M186.496 119.879C183.11 120.493 179.384 124.607 179.165 123.493C178.945 122.379 182.058 118.837 185.444 118.223C188.831 117.609 193.91 116.139 194.129 117.253C194.348 118.366 189.883 119.265 186.496 119.879Z" fill="url(#paint3_linear_2_4539)"/>
<path d="M187.219 114.916C183.79 115.248 179.71 119.039 179.591 117.912C179.472 116.784 182.891 113.512 186.32 113.179C189.749 112.847 194.94 111.801 195.059 112.929C195.178 114.056 190.648 114.584 187.219 114.916Z" fill="url(#paint4_linear_2_4539)"/>
<path d="M172.936 67.8204C169.544 68.4061 165.782 72.4888 165.572 71.3733C165.363 70.2578 168.507 66.7416 171.899 66.1559C175.291 65.5701 180.383 64.1417 180.592 65.2572C180.802 66.3727 176.328 67.2347 172.936 67.8204Z" fill="url(#paint5_linear_2_4539)"/>
<path d="M169.747 65.0177C166.355 65.6034 162.592 69.6861 162.383 68.5706C162.174 67.4551 165.318 63.9388 168.71 63.3531C172.102 62.7674 177.193 61.3389 177.403 62.4544C177.612 63.5699 173.138 64.432 169.747 65.0177Z" fill="url(#paint6_linear_2_4539)"/>
<path d="M167.089 61.9586C163.697 62.5443 159.935 66.627 159.726 65.5115C159.516 64.396 162.661 60.8798 166.053 60.294C169.445 59.7083 174.536 58.2798 174.746 59.3953C174.955 60.5108 170.481 61.3729 167.089 61.9586Z" fill="url(#paint7_linear_2_4539)"/>
<path d="M163.636 59.1544C160.244 59.7401 156.482 63.8228 156.273 62.7073C156.063 61.5918 159.208 58.0756 162.6 57.4898C165.992 56.9041 171.083 55.4756 171.293 56.5911C171.502 57.7066 167.028 58.5687 163.636 59.1544Z" fill="url(#paint8_linear_2_4539)"/>
<path d="M160.179 56.6056C156.787 57.1913 153.025 61.2739 152.816 60.1585C152.606 59.043 155.751 55.5267 159.143 54.941C162.535 54.3553 167.626 52.9268 167.836 54.0423C168.045 55.1578 163.571 56.0199 160.179 56.6056Z" fill="url(#paint9_linear_2_4539)"/>
<path d="M156.473 54.1039C153.175 55.0614 149.929 59.5335 149.587 58.4486C149.245 57.3638 151.945 53.5228 155.243 52.5653C158.542 51.6078 163.427 49.625 163.77 50.7098C164.112 51.7946 159.772 53.1464 156.473 54.1039Z" fill="url(#paint10_linear_2_4539)"/>
<path d="M152.941 51.7084C149.76 52.9797 147.001 57.7425 146.546 56.6962C146.092 55.65 148.375 51.5677 151.556 50.2964C154.737 49.0251 159.39 46.5804 159.844 47.6266C160.299 48.6729 156.123 50.4371 152.941 51.7084Z" fill="url(#paint11_linear_2_4539)"/>
<path d="M148.988 49.9771C146.016 51.6511 143.957 56.7292 143.358 55.7519C142.76 54.7745 144.443 50.4327 147.415 48.7587C150.387 47.0848 154.65 44.0566 155.248 45.0339C155.847 46.0113 151.959 48.3031 148.988 49.9771Z" fill="url(#paint12_linear_2_4539)"/>
<path d="M144.911 48.1473C142.007 49.9276 140.149 55.0766 139.513 54.1216C138.876 53.1666 140.388 48.767 143.292 46.9867C146.195 45.2064 150.336 42.0261 150.973 42.9811C151.609 43.9361 147.815 46.367 144.911 48.1473Z" fill="url(#paint13_linear_2_4539)"/>
<path d="M140.906 46.6042C138.195 48.6451 136.864 53.9421 136.134 53.0505C135.405 52.159 136.466 47.6399 139.177 45.599C141.888 43.5581 145.689 40.0091 146.419 40.9007C147.149 41.7922 143.617 44.5632 140.906 46.6042Z" fill="url(#paint14_linear_2_4539)"/>
<path d="M136.475 45.3167C133.878 47.4891 132.834 52.8448 132.057 51.9905C131.28 51.1363 132.097 46.5707 134.695 44.3984C137.292 42.2261 140.898 38.4939 141.674 39.3481C142.451 40.2024 139.073 43.1444 136.475 45.3167Z" fill="url(#paint15_linear_2_4539)"/>
<path d="M131.856 44.4283C129.477 46.8198 128.949 52.2447 128.094 51.4623C127.239 50.6799 127.617 46.0618 129.996 43.6703C132.375 41.2789 135.608 37.2456 136.463 38.028C137.318 38.8104 134.236 42.0369 131.856 44.4283Z" fill="url(#paint16_linear_2_4539)"/>
<path d="M126.898 44.0002C124.766 46.5966 124.775 52.0451 123.847 51.3437C122.918 50.6423 122.839 46.0107 124.971 43.4142C127.104 40.8178 129.925 36.5094 130.854 37.2108C131.782 37.9122 129.031 41.4037 126.898 44.0002Z" fill="url(#paint17_linear_2_4539)"/>
<path d="M122.054 43.6797C120.097 46.4001 120.465 51.8372 119.492 51.1934C118.519 50.5496 118.135 45.9321 120.093 43.2116C122.05 40.4912 124.582 36.0205 125.555 36.6643C126.528 37.3081 124.012 40.9593 122.054 43.6797Z" fill="url(#paint18_linear_2_4539)"/>
<path d="M117.3 43.7923C115.467 46.5913 116.08 52.008 115.079 51.4052C114.078 50.8024 113.486 46.2051 115.319 43.4061C117.152 40.607 119.48 36.0354 120.481 36.6382C121.482 37.241 119.133 40.9932 117.3 43.7923Z" fill="url(#paint19_linear_2_4539)"/>
<path d="M112.703 43.7491C111.18 46.7143 112.371 52.0417 111.311 51.5409C110.251 51.0402 109.168 46.5259 110.69 43.5606C112.213 40.5954 114.038 35.8181 115.098 36.3188C116.158 36.8196 114.225 40.7838 112.703 43.7491Z" fill="url(#paint20_linear_2_4539)"/>
<path d="M187.732 109.995C184.312 110.405 180.328 114.289 180.181 113.164C180.034 112.04 183.37 108.69 186.79 108.279C190.209 107.868 195.373 106.703 195.52 107.828C195.667 108.953 191.152 109.584 187.732 109.995Z" fill="url(#paint21_linear_2_4539)"/>
<path d="M187.36 105.669C183.94 106.08 179.955 109.963 179.809 108.839C179.662 107.714 182.998 104.364 186.418 103.953C189.837 103.543 195.001 102.378 195.148 103.502C195.295 104.627 190.78 105.258 187.36 105.669Z" fill="url(#paint22_linear_2_4539)"/>
<path d="M187.517 101.331C184.097 101.742 180.113 105.625 179.966 104.501C179.819 103.376 183.155 100.026 186.575 99.6156C189.995 99.2048 195.159 98.0397 195.305 99.1644C195.452 100.289 190.937 100.92 187.517 101.331Z" fill="url(#paint23_linear_2_4539)"/>
<path d="M186.979 96.7411C183.559 97.1519 179.575 101.036 179.428 99.9109C179.281 98.7863 182.617 95.4365 186.037 95.0257C189.456 94.6149 194.62 93.4499 194.767 94.5745C194.914 95.6992 190.399 96.3303 186.979 96.7411Z" fill="url(#paint24_linear_2_4539)"/>
<path d="M186.181 92.1537C182.761 92.5645 178.777 96.4482 178.63 95.3235C178.483 94.1989 181.819 90.8491 185.239 90.4383C188.659 90.0275 193.823 88.8625 193.97 89.9871C194.116 91.1118 189.601 91.7429 186.181 92.1537Z" fill="url(#paint25_linear_2_4539)"/>
<path d="M184.802 88.391C181.382 88.8018 177.398 92.6855 177.251 91.5608C177.104 90.4362 180.44 87.0864 183.86 86.6756C187.28 86.2648 192.444 85.0998 192.591 86.2244C192.737 87.3491 188.222 87.9802 184.802 88.391Z" fill="url(#paint26_linear_2_4539)"/>
<path d="M182.994 85.016C179.574 85.4268 175.589 89.3105 175.442 88.1858C175.295 87.0612 178.632 83.7114 182.051 83.3006C185.471 82.8898 190.635 81.7248 190.782 82.8494C190.929 83.9741 186.413 84.6052 182.994 85.016Z" fill="url(#paint27_linear_2_4539)"/>
<path d="M181.694 81.0678C178.274 81.4785 174.289 85.3622 174.143 84.2376C173.996 83.1129 177.332 79.7632 180.752 79.3524C184.171 78.9416 189.335 77.7765 189.482 78.9012C189.629 80.0258 185.114 80.657 181.694 81.0678Z" fill="url(#paint28_linear_2_4539)"/>
<path d="M179.227 78.0658C175.807 78.4766 171.823 82.3603 171.676 81.2356C171.529 80.111 174.865 76.7612 178.285 76.3504C181.705 75.9396 186.869 74.7746 187.015 75.8992C187.162 77.0239 182.647 77.655 179.227 78.0658Z" fill="url(#paint29_linear_2_4539)"/>
<path d="M177.412 74.3114C173.992 74.7222 170.007 78.6059 169.86 77.4812C169.713 76.3566 173.05 73.0068 176.469 72.596C179.889 72.1853 185.053 71.0202 185.2 72.1448C185.347 73.2695 180.831 73.9006 177.412 74.3114Z" fill="url(#paint30_linear_2_4539)"/>
<path d="M175.815 70.9984C172.395 71.4092 168.411 75.2929 168.264 74.1683C168.117 73.0436 171.453 69.6938 174.873 69.283C178.292 68.8723 183.456 67.7072 183.603 68.8318C183.75 69.9565 179.235 70.5876 175.815 70.9984Z" fill="url(#paint31_linear_2_4539)"/>
<path d="M60.8842 76.8253C63.4414 79.0413 69.3574 79.1379 68.4821 80.0668C67.6069 80.9958 62.5691 80.9866 60.0119 78.7706C57.4547 76.5546 53.1235 73.606 53.9987 72.677C54.8739 71.7481 58.3271 74.6093 60.8842 76.8253Z" fill="url(#paint32_linear_2_4539)"/>
<path d="M59.6854 81.48C62.5881 83.2619 68.2412 82.7205 67.6041 83.6751C66.967 84.6297 62.1685 85.1585 59.2657 83.3766C56.3629 81.5948 51.6162 79.3229 52.2533 78.3682C52.8905 77.4136 56.7826 79.6982 59.6854 81.48Z" fill="url(#paint33_linear_2_4539)"/>
<path d="M57.7595 85.8438C60.8152 87.3726 66.3962 86.3541 65.8496 87.359C65.3029 88.3639 60.5719 89.2974 57.5163 87.7686C54.4606 86.2398 49.5231 84.3792 50.0697 83.3743C50.6164 82.3694 54.7038 84.315 57.7595 85.8438Z" fill="url(#paint34_linear_2_4539)"/>
<path d="M56.3402 90.4437C59.5711 91.5942 64.9757 89.9148 64.5643 90.9773C64.1529 92.0399 59.5806 93.5331 56.3497 92.3825C53.1188 91.232 47.9775 89.9778 48.3889 88.9152C48.8003 87.8527 53.1092 89.2932 56.3402 90.4437Z" fill="url(#paint35_linear_2_4539)"/>
<path d="M55.5423 94.5223C58.7733 95.6729 64.1778 93.9934 63.7664 95.0559C63.355 96.1185 58.7828 97.6117 55.5518 96.4611C52.3209 95.3106 47.1797 94.0564 47.591 92.9938C48.0024 91.9313 52.3114 93.3718 55.5423 94.5223Z" fill="url(#paint36_linear_2_4539)"/>
<path d="M54.7435 99.1097C57.9744 100.26 63.379 98.5808 62.9676 99.6433C62.5562 100.706 57.9839 102.199 54.753 101.049C51.5221 99.898 46.3808 98.6438 46.7922 97.5812C47.2036 96.5187 51.5126 97.9592 54.7435 99.1097Z" fill="url(#paint37_linear_2_4539)"/>
<path d="M54.2132 103.443C57.4442 104.593 62.8487 102.914 62.4373 103.976C62.0259 105.039 57.4537 106.532 54.2227 105.382C50.9918 104.231 45.8506 102.977 46.2619 101.914C46.6733 100.852 50.9823 102.292 54.2132 103.443Z" fill="url(#paint38_linear_2_4539)"/>
<path d="M54.2132 107.521C57.4442 108.672 62.8487 106.992 62.4373 108.055C62.0259 109.118 57.4537 110.611 54.2227 109.46C50.9918 108.31 45.8506 107.055 46.2619 105.993C46.6733 104.93 50.9823 106.371 54.2132 107.521Z" fill="url(#paint39_linear_2_4539)"/>
<path d="M54.5804 111.163C57.8113 112.314 63.2159 110.635 62.8045 111.697C62.3931 112.76 57.8209 114.253 54.5899 113.102C51.359 111.952 46.2177 110.698 46.6291 109.635C47.0405 108.572 51.3495 110.013 54.5804 111.163Z" fill="url(#paint40_linear_2_4539)"/>
<path d="M54.4788 115.678C57.7098 116.828 63.1143 115.149 62.703 116.211C62.2916 117.274 57.7193 118.767 54.4884 117.616C51.2574 116.466 46.1162 115.212 46.5276 114.149C46.939 113.087 51.2479 114.527 54.4788 115.678Z" fill="url(#paint41_linear_2_4539)"/>
<path d="M108.029 43.8409C106.714 46.8959 108.268 52.1364 107.176 51.7037C106.084 51.271 104.693 46.835 106.009 43.78C107.324 40.725 108.817 35.8428 109.909 36.2755C111.002 36.7082 109.345 40.7859 108.029 43.8409Z" fill="url(#paint42_linear_2_4539)"/>
<path d="M103.391 44.9267C102.76 48.1762 105.407 52.997 104.245 52.7894C103.083 52.5819 100.769 48.5158 101.4 45.2664C102.031 42.017 102.443 36.9446 103.605 37.1522C104.767 37.3597 104.022 41.6773 103.391 44.9267Z" fill="url(#paint43_linear_2_4539)"/>
<path d="M98.8417 45.8428C98.5848 49.1389 101.766 53.6533 100.587 53.5688C99.4087 53.4843 96.6451 49.6852 96.9019 46.3891C97.1588 43.093 96.9899 38.0079 98.1684 38.0924C99.347 38.1768 99.0985 42.5467 98.8417 45.8428Z" fill="url(#paint44_linear_2_4539)"/>
<path d="M94.4069 47.9402C94.697 51.2337 98.5825 55.2087 97.4049 55.3041C96.2272 55.3995 92.8718 52.0675 92.5817 48.7739C92.2917 45.4803 91.2861 40.4848 92.4637 40.3895C93.6414 40.2941 94.1168 44.6466 94.4069 47.9402Z" fill="url(#paint45_linear_2_4539)"/>
<path d="M89.8815 49.8707C90.5237 53.1181 94.8155 56.6881 93.6544 56.8993C92.4932 57.1105 88.7978 54.1276 88.1556 50.8802C87.5134 47.6328 85.9766 42.7632 87.1378 42.552C88.2989 42.3408 89.2393 46.6232 89.8815 49.8707Z" fill="url(#paint46_linear_2_4539)"/>
<path d="M85.4566 51.4559C86.3842 54.6392 90.9768 57.8465 89.8385 58.1516C88.7003 58.4567 84.754 55.7857 83.8263 52.6024C82.8987 49.4191 80.9361 44.6924 82.0744 44.3873C83.2126 44.0822 84.529 48.2725 85.4566 51.4559Z" fill="url(#paint47_linear_2_4539)"/>
<path d="M81.7728 53.7512C82.7189 56.9295 87.33 60.1123 86.1936 60.4234C85.0572 60.7346 81.0954 58.0848 80.1493 54.9064C79.2032 51.7281 77.2132 47.0119 78.3496 46.7008C79.486 46.3897 80.8267 50.5729 81.7728 53.7512Z" fill="url(#paint48_linear_2_4539)"/>
<path d="M77.6244 56.2918C78.869 59.374 83.7637 62.1399 82.6617 62.5492C81.5596 62.9585 77.3621 60.6666 76.1175 57.5843C74.8729 54.502 72.4424 49.9797 73.5445 49.5704C74.6466 49.1611 76.3798 53.2095 77.6244 56.2918Z" fill="url(#paint49_linear_2_4539)"/>
<path d="M74.4369 59.3504C75.6815 62.4326 80.5762 65.1985 79.4742 65.6078C78.3721 66.0171 74.1746 63.7251 72.93 60.6429C71.6854 57.5606 69.2549 53.0383 70.357 52.629C71.4591 52.2197 73.1923 56.2681 74.4369 59.3504Z" fill="url(#paint50_linear_2_4539)"/>
<path d="M71.5121 62.6633C72.7567 65.7456 77.6514 68.5115 76.5493 68.9208C75.4473 69.3301 71.2498 67.0381 70.0052 63.9559C68.7606 60.8736 66.3301 56.3513 67.4322 55.942C68.5343 55.5327 70.2675 59.5811 71.5121 62.6633Z" fill="url(#paint51_linear_2_4539)"/>
<path d="M69.3881 65.9778C70.6327 69.0601 75.5274 71.8259 74.4253 72.2352C73.3232 72.6446 69.1258 70.3526 67.8812 67.2703C66.6366 64.1881 64.2061 59.6658 65.3082 59.2565C66.4103 58.8472 68.1435 62.8955 69.3881 65.9778Z" fill="url(#paint52_linear_2_4539)"/>
<path d="M66.707 69.4305C68.3303 72.3462 73.5372 74.5255 72.4947 75.0594C71.4521 75.5932 66.997 73.8037 65.3737 70.888C63.7504 67.9722 60.7688 63.7642 61.8113 63.2304C62.8538 62.6965 65.0837 66.5148 66.707 69.4305Z" fill="url(#paint53_linear_2_4539)"/>
<path d="M63.2144 72.7597C64.9934 75.5907 71.1501 77.0229 69.8565 77.7706C68.5629 78.5182 63.4599 76.681 61.6809 73.8501C59.9019 71.0192 56.3927 67.7348 57.6863 66.9871C58.9799 66.2394 61.4354 69.9288 63.2144 72.7597Z" fill="url(#paint54_linear_2_4539)"/>
<path d="M99.4402 68.4918C99.5077 67.9042 100.105 67.5288 100.664 67.7213C114.208 72.3824 116.982 76.7597 114.122 87.3703C114.013 87.7742 113.643 88.0567 113.225 88.0567H113.055C112.729 88.0567 112.427 88.2258 112.257 88.5033L112.182 88.6256C111.972 88.9676 111.559 89.1369 111.169 89.0428C99.0681 86.1229 97.9917 81.1091 99.4402 68.4918Z" fill="#7BDB01"/>
<path d="M90.9362 97.0092C90.837 96.4274 91.3079 95.897 91.8975 95.9233C110.439 96.7479 114.791 101.432 114.926 115.7C114.929 115.947 114.746 116.162 114.502 116.193L114.252 116.226C114.025 116.256 113.901 116.506 114.015 116.705C114.134 116.911 113.986 117.171 113.748 117.184C97.5962 118.055 93.6725 113.051 90.9362 97.0092Z" fill="#7BDB01"/>
<path d="M142.958 67.0485C143.526 66.8187 144.167 67.2003 144.234 67.8096C146.587 89.0779 140.509 96.0551 122.585 100.493C122.42 100.534 122.269 100.378 122.323 100.217C122.404 99.9763 122.076 99.8176 121.937 100.03L121.871 100.133C121.76 100.304 121.496 100.249 121.451 100.05C117.386 82.0087 123.244 75.0223 142.958 67.0485Z" fill="#7BDB01"/>
<path d="M127.513 135.905C128.459 134.65 129.522 135.505 131.093 135.445C131.538 135.428 132.157 135.397 133.016 135.37C137.27 134.71 135.464 136.241 138.311 138.704C138.421 138.8 138.528 138.909 138.619 139.023C142.143 143.481 144.924 144.059 149.326 145.597C149.675 145.719 149.908 146.049 149.908 146.419C149.908 146.902 149.516 147.294 149.033 147.294H103.457C101.977 147.294 101.169 145.567 102.116 144.431C102.182 144.352 102.251 144.278 102.338 144.225C104.03 143.187 112.477 143.46 118.832 142.373C119.015 142.342 119.193 142.283 119.359 142.201C123.536 140.125 125.607 138.433 127.513 135.905Z" fill="#BA5400"/>
<path d="M114.384 132.251C115.209 130.913 116.989 131.124 117.996 132.33C118.899 133.41 120.238 134.021 122.973 133.937C127.228 133.277 126.376 136.244 129.262 138.762C129.372 138.858 129.478 138.966 129.569 139.081C133.093 143.538 135.874 144.117 140.276 145.655C140.625 145.777 140.858 146.107 140.858 146.476C140.858 146.959 140.466 147.351 139.983 147.351H98.0992C96.0659 147.351 95.3448 144.659 97.1058 143.643L98.0172 143.117C98.119 143.058 98.2158 142.99 98.3045 142.913C99.5329 141.844 99.7852 141.216 105.848 140.114C106.031 140.081 106.215 140.022 106.38 139.938C110.622 137.796 112.531 135.257 114.384 132.251Z" fill="#EB7900"/>
<path d="M111.738 78.4848C111.901 78.6548 111.994 78.887 111.955 79.1199C111.665 80.8565 111.93 81.9552 112.019 83.7579C112.023 83.8463 112.047 83.935 112.086 84.0141C116.123 92.0374 117.726 97.1278 118.811 104.382C118.917 105.091 120.011 105.125 120.16 104.423C121.053 100.22 122.015 97.0156 123.676 92.3071C123.709 92.2113 123.72 92.1072 123.705 92.0068L122.972 87.0234C122.956 86.913 122.968 86.7991 123.016 86.6983C123.255 86.1964 123.529 86.0629 124.079 86.1668C124.254 86.1998 124.397 86.3216 124.477 86.4808L125.138 87.8039C125.348 88.2236 125.929 88.2703 126.203 87.8894L128.409 84.8263C133.272 79.1137 130.16 84.0353 129.966 85.5198C129.946 85.6754 129.926 85.8385 129.85 85.9755L126.196 92.5006C125.947 92.9445 126.305 93.4834 126.811 93.4256L130.623 92.99C130.886 92.96 131.154 93.0942 131.224 93.3492C131.293 93.6024 131.278 93.8217 131.175 94.0921C131.112 94.2566 130.964 94.3706 130.794 94.417L125.985 95.7286C125.937 95.7418 125.889 95.7608 125.846 95.7859C124.758 96.4125 124.369 97.2072 123.748 98.6651C123.735 98.6967 123.723 98.7305 123.715 98.7639C122.054 105.649 121.307 109.491 120.763 116.189L121.224 136.454C121.228 136.661 121.132 136.86 120.957 136.97C120.508 137.253 120.157 137.326 119.606 136.965C119.445 136.859 119.36 136.669 119.362 136.476C119.435 129.7 119.06 126.276 116.862 121.962C114.657 118.054 112.337 114.316 110.465 114.316C108.593 114.316 106.72 115.096 105.94 114.94C105.16 114.784 103.756 114.439 105.16 113.692C106.564 112.945 107.188 112.288 108.749 112.288C110.257 112.288 104.069 108.355 103.653 108.091C103.638 108.081 103.622 108.073 103.606 108.064C102.234 107.334 102.987 105.623 104.255 106.361C104.837 106.699 105.66 107.28 106.383 107.811C106.875 108.173 107.635 107.672 107.605 107.062C107.58 106.525 107.614 106.009 107.644 105.378C107.652 105.207 107.727 105.043 107.865 104.942C108.241 104.663 108.553 104.593 109.019 104.697C109.24 104.747 109.398 104.937 109.439 105.16L110.425 110.513C110.451 110.652 110.524 110.779 110.63 110.872C113.297 113.204 114.942 114.988 116.912 118.126C117.262 118.684 118.151 118.415 118.107 117.758C117.331 106.073 115.776 98.8719 110.601 87.1626C110.517 86.9722 110.342 86.8333 110.137 86.7976L107.05 86.2609C106.937 86.2411 106.829 86.1911 106.747 86.1101C106.351 85.7208 106.321 85.441 106.701 85.0095C106.808 84.8875 106.967 84.8263 107.13 84.8263H108.377C108.837 84.8263 109.139 84.3444 108.938 83.9299L106.955 79.8398C106.904 79.7337 106.887 79.6147 106.87 79.4979C106.752 78.6575 105.575 76.9194 107.85 78.6505C107.926 78.7081 107.99 78.7855 108.032 78.8708L109.78 82.4213C110.072 83.014 110.964 82.8063 110.964 82.1456V79.035C110.964 78.8488 111.05 78.6743 111.185 78.5464C111.631 78.1256 111.398 78.1326 111.738 78.4848Z" fill="#549C00"/>
<path d="M134.29 108.045L132.473 108.997C131.887 109.304 131.796 110.106 132.298 110.537L134.442 112.374C134.498 112.422 134.548 112.477 134.591 112.537L135.747 114.136C136.134 114.673 136.94 114.649 137.295 114.091L138.627 111.998C138.701 111.882 138.799 111.784 138.914 111.711L140.777 110.526C141.391 110.135 141.344 109.224 140.693 108.898L138.971 108.037C138.819 107.962 138.691 107.846 138.6 107.703L137.374 105.776C136.999 105.187 136.133 105.201 135.778 105.803L134.662 107.692C134.573 107.842 134.444 107.964 134.29 108.045Z" fill="#FFE4B2"/>
<path d="M88.2025 80.8823L87.1 81.5132C86.5534 81.8261 86.4654 82.5786 86.9251 83.0091L88.3537 84.3469C88.4071 84.3969 88.4545 84.453 88.4948 84.514L89.1096 85.4441C89.4924 86.0232 90.3502 85.9989 90.6996 85.3991L91.4593 84.0948C91.528 83.9768 91.6217 83.8753 91.7338 83.7973L92.8704 83.0071C93.4417 82.61 93.3954 81.7504 92.7848 81.4169L91.7925 80.8748C91.6428 80.793 91.5182 80.6719 91.4323 80.5244L90.7801 79.4046C90.4123 78.7732 89.4953 78.7878 89.1477 79.4305L88.561 80.5152C88.478 80.6685 88.3539 80.7957 88.2025 80.8823Z" fill="#FFE4B2"/>
<path d="M194.362 130.219C194.362 165.411 154.23 191.137 115.188 191.137C76.1459 191.137 45 170.254 45 135.062C45 99.8701 105.068 147.042 144.109 147.042C183.151 147.042 194.362 95.0273 194.362 130.219Z" fill="url(#paint55_linear_2_4539)"/>
<path d="M192.666 134.878C192.666 167.379 153.538 191.137 115.473 191.137C77.4085 191.137 47.042 171.851 47.042 139.35C47.042 106.849 105.606 150.414 143.671 150.414C181.736 150.414 192.666 102.377 192.666 134.878Z" fill="#1D6923"/>
<path d="M191.535 138.275C191.535 169.55 153.015 192.411 115.541 192.411C78.0676 192.411 48.1729 173.854 48.1729 142.579C48.1729 111.304 105.828 153.225 143.301 153.225C180.775 153.225 191.535 107.001 191.535 138.275Z" fill="url(#paint56_linear_2_4539)"/>
</g>
<defs>
<filter id="filter0_d_2_4539" x="0.893047" y="0.935828" width="240.214" height="240.214" filterUnits="userSpaceOnUse" color-interpolation-filters="sRGB">
<feFlood flood-opacity="0" result="BackgroundImageFix"/>
<feColorMatrix in="SourceAlpha" type="matrix" values="0 0 0 0 0 0 0 0 0 0 0 0 0 0 0 0 0 0 127 0" result="hardAlpha"/>
<feOffset dy="8.04278"/>
<feGaussianBlur stdDeviation="10.0535"/>
<feComposite in2="hardAlpha" operator="out"/>
<feColorMatrix type="matrix" values="0 0 0 0 0 0 0 0 0 0 0 0 0 0 0 0 0 0 0.25 0"/>
<feBlend mode="normal" in2="BackgroundImageFix" result="effect1_dropShadow_2_4539"/>
<feBlend mode="normal" in="SourceGraphic" in2="effect1_dropShadow_2_4539" result="shape"/>
</filter>
<linearGradient id="paint0_linear_2_4539" x1="30.9687" y1="18.8481" x2="57.75" y2="115.503" gradientUnits="userSpaceOnUse">
<stop offset="0.0200484" stop-color="#C29217"/>
<stop offset="0.389877" stop-color="#FFE605" stop-opacity="0.742865"/>
<stop offset="0.666667" stop-color="#C29217"/>
<stop offset="0.855158" stop-color="#FFE600"/>
<stop offset="1" stop-color="#FFE712" stop-opacity="0"/>
</linearGradient>
<linearGradient id="paint1_linear_2_4539" x1="52.8834" y1="120.591" x2="61.1075" y2="117.716" gradientUnits="userSpaceOnUse">
<stop offset="0.0200484" stop-color="#C29217"/>
<stop offset="0.389877" stop-color="#FFE605" stop-opacity="0.742865"/>
<stop offset="0.666667" stop-color="#C29217"/>
<stop offset="0.855158" stop-color="#FFE600"/>
<stop offset="1" stop-color="#FFE712" stop-opacity="0"/>
</linearGradient>
<linearGradient id="paint2_linear_2_4539" x1="186.535" y1="123.323" x2="180.569" y2="129.472" gradientUnits="userSpaceOnUse">
<stop offset="0.0200484" stop-color="#C29217"/>
<stop offset="0.389877" stop-color="#FFE605" stop-opacity="0.742865"/>
<stop offset="0.666667" stop-color="#C29217"/>
<stop offset="0.855158" stop-color="#FFE600"/>
<stop offset="1" stop-color="#FFE712" stop-opacity="0"/>
</linearGradient>
<linearGradient id="paint3_linear_2_4539" x1="187.245" y1="118.023" x2="181.847" y2="124.637" gradientUnits="userSpaceOnUse">
<stop offset="0.0200484" stop-color="#C29217"/>
<stop offset="0.389877" stop-color="#FFE605" stop-opacity="0.742865"/>
<stop offset="0.666667" stop-color="#C29217"/>
<stop offset="0.855158" stop-color="#FFE600"/>
<stop offset="1" stop-color="#FFE712" stop-opacity="0"/>
</linearGradient>
<linearGradient id="paint4_linear_2_4539" x1="188.131" y1="113.128" x2="182.166" y2="119.278" gradientUnits="userSpaceOnUse">
<stop offset="0.0200484" stop-color="#C29217"/>
<stop offset="0.389877" stop-color="#FFE605" stop-opacity="0.742865"/>
<stop offset="0.666667" stop-color="#C29217"/>
<stop offset="0.855158" stop-color="#FFE600"/>
<stop offset="1" stop-color="#FFE712" stop-opacity="0"/>
</linearGradient>
<linearGradient id="paint5_linear_2_4539" x1="173.701" y1="65.9701" x2="168.245" y2="72.54" gradientUnits="userSpaceOnUse">
<stop offset="0.0200484" stop-color="#C29217"/>
<stop offset="0.389877" stop-color="#FFE605" stop-opacity="0.742865"/>
<stop offset="0.666667" stop-color="#C29217"/>
<stop offset="0.855158" stop-color="#FFE600"/>
<stop offset="1" stop-color="#FFE712" stop-opacity="0"/>
</linearGradient>
<linearGradient id="paint6_linear_2_4539" x1="170.512" y1="63.1673" x2="165.056" y2="69.7373" gradientUnits="userSpaceOnUse">
<stop offset="0.0200484" stop-color="#C29217"/>
<stop offset="0.389877" stop-color="#FFE605" stop-opacity="0.742865"/>
<stop offset="0.666667" stop-color="#C29217"/>
<stop offset="0.855158" stop-color="#FFE600"/>
<stop offset="1" stop-color="#FFE712" stop-opacity="0"/>
</linearGradient>
<linearGradient id="paint7_linear_2_4539" x1="167.855" y1="60.1082" x2="162.399" y2="66.6782" gradientUnits="userSpaceOnUse">
<stop offset="0.0200484" stop-color="#C29217"/>
<stop offset="0.389877" stop-color="#FFE605" stop-opacity="0.742865"/>
<stop offset="0.666667" stop-color="#C29217"/>
<stop offset="0.855158" stop-color="#FFE600"/>
<stop offset="1" stop-color="#FFE712" stop-opacity="0"/>
</linearGradient>
<linearGradient id="paint8_linear_2_4539" x1="164.402" y1="57.304" x2="158.946" y2="63.874" gradientUnits="userSpaceOnUse">
<stop offset="0.0200484" stop-color="#C29217"/>
<stop offset="0.389877" stop-color="#FFE605" stop-opacity="0.742865"/>
<stop offset="0.666667" stop-color="#C29217"/>
<stop offset="0.855158" stop-color="#FFE600"/>
<stop offset="1" stop-color="#FFE712" stop-opacity="0"/>
</linearGradient>
<linearGradient id="paint9_linear_2_4539" x1="160.945" y1="54.7552" x2="155.489" y2="61.3252" gradientUnits="userSpaceOnUse">
<stop offset="0.0200484" stop-color="#C29217"/>
<stop offset="0.389877" stop-color="#FFE605" stop-opacity="0.742865"/>
<stop offset="0.666667" stop-color="#C29217"/>
<stop offset="0.855158" stop-color="#FFE600"/>
<stop offset="1" stop-color="#FFE712" stop-opacity="0"/>
</linearGradient>
<linearGradient id="paint10_linear_2_4539" x1="157.011" y1="52.1812" x2="152.362" y2="59.2982" gradientUnits="userSpaceOnUse">
<stop offset="0.0200484" stop-color="#C29217"/>
<stop offset="0.389877" stop-color="#FFE605" stop-opacity="0.742865"/>
<stop offset="0.666667" stop-color="#C29217"/>
<stop offset="0.855158" stop-color="#FFE600"/>
<stop offset="1" stop-color="#FFE712" stop-opacity="0"/>
</linearGradient>
<linearGradient id="paint11_linear_2_4539" x1="153.274" y1="49.7435" x2="149.365" y2="57.2572" gradientUnits="userSpaceOnUse">
<stop offset="0.0200484" stop-color="#C29217"/>
<stop offset="0.389877" stop-color="#FFE605" stop-opacity="0.742865"/>
<stop offset="0.666667" stop-color="#C29217"/>
<stop offset="0.855158" stop-color="#FFE600"/>
<stop offset="1" stop-color="#FFE712" stop-opacity="0"/>
</linearGradient>
<linearGradient id="paint12_linear_2_4539" x1="149.039" y1="47.9871" x2="146.169" y2="55.9182" gradientUnits="userSpaceOnUse">
<stop offset="0.0200484" stop-color="#C29217"/>
<stop offset="0.389877" stop-color="#FFE605" stop-opacity="0.742865"/>
<stop offset="0.666667" stop-color="#C29217"/>
<stop offset="0.855158" stop-color="#FFE600"/>
<stop offset="1" stop-color="#FFE712" stop-opacity="0"/>
</linearGradient>
<linearGradient id="paint13_linear_2_4539" x1="144.884" y1="46.1568" x2="142.308" y2="54.1796" gradientUnits="userSpaceOnUse">
<stop offset="0.0200484" stop-color="#C29217"/>
<stop offset="0.389877" stop-color="#FFE605" stop-opacity="0.742865"/>
<stop offset="0.666667" stop-color="#C29217"/>
<stop offset="0.855158" stop-color="#FFE600"/>
<stop offset="1" stop-color="#FFE712" stop-opacity="0"/>
</linearGradient>
<linearGradient id="paint14_linear_2_4539" x1="140.678" y1="44.6255" x2="138.865" y2="52.8367" gradientUnits="userSpaceOnUse">
<stop offset="0.0200484" stop-color="#C29217"/>
<stop offset="0.389877" stop-color="#FFE605" stop-opacity="0.742865"/>
<stop offset="0.666667" stop-color="#C29217"/>
<stop offset="0.855158" stop-color="#FFE600"/>
<stop offset="1" stop-color="#FFE712" stop-opacity="0"/>
</linearGradient>
<linearGradient id="paint15_linear_2_4539" x1="136.142" y1="43.352" x2="134.74" y2="51.6363" gradientUnits="userSpaceOnUse">
<stop offset="0.0200484" stop-color="#C29217"/>
<stop offset="0.389877" stop-color="#FFE605" stop-opacity="0.742865"/>
<stop offset="0.666667" stop-color="#C29217"/>
<stop offset="0.855158" stop-color="#FFE600"/>
<stop offset="1" stop-color="#FFE712" stop-opacity="0"/>
</linearGradient>
<linearGradient id="paint16_linear_2_4539" x1="131.337" y1="42.5011" x2="130.67" y2="50.8689" gradientUnits="userSpaceOnUse">
<stop offset="0.0200484" stop-color="#C29217"/>
<stop offset="0.389877" stop-color="#FFE605" stop-opacity="0.742865"/>
<stop offset="0.666667" stop-color="#C29217"/>
<stop offset="0.855158" stop-color="#FFE600"/>
<stop offset="1" stop-color="#FFE712" stop-opacity="0"/>
</linearGradient>
<linearGradient id="paint17_linear_2_4539" x1="126.191" y1="42.1287" x2="126.286" y2="50.5202" gradientUnits="userSpaceOnUse">
<stop offset="0.0200484" stop-color="#C29217"/>
<stop offset="0.389877" stop-color="#FFE605" stop-opacity="0.742865"/>
<stop offset="0.666667" stop-color="#C29217"/>
<stop offset="0.855158" stop-color="#FFE600"/>
<stop offset="1" stop-color="#FFE712" stop-opacity="0"/>
</linearGradient>
<linearGradient id="paint18_linear_2_4539" x1="121.225" y1="41.8548" x2="121.828" y2="50.227" gradientUnits="userSpaceOnUse">
<stop offset="0.0200484" stop-color="#C29217"/>
<stop offset="0.389877" stop-color="#FFE605" stop-opacity="0.742865"/>
<stop offset="0.666667" stop-color="#C29217"/>
<stop offset="0.855158" stop-color="#FFE600"/>
<stop offset="1" stop-color="#FFE712" stop-opacity="0"/>
</linearGradient>
<linearGradient id="paint19_linear_2_4539" x1="116.389" y1="42.0035" x2="117.34" y2="50.3462" gradientUnits="userSpaceOnUse">
<stop offset="0.0200484" stop-color="#C29217"/>
<stop offset="0.389877" stop-color="#FFE605" stop-opacity="0.742865"/>
<stop offset="0.666667" stop-color="#C29217"/>
<stop offset="0.855158" stop-color="#FFE600"/>
<stop offset="1" stop-color="#FFE712" stop-opacity="0"/>
</linearGradient>
<linearGradient id="paint20_linear_2_4539" x1="111.604" y1="42.0598" x2="113.379" y2="50.2787" gradientUnits="userSpaceOnUse">
<stop offset="0.0200484" stop-color="#C29217"/>
<stop offset="0.389877" stop-color="#FFE605" stop-opacity="0.742865"/>
<stop offset="0.666667" stop-color="#C29217"/>
<stop offset="0.855158" stop-color="#FFE600"/>
<stop offset="1" stop-color="#FFE712" stop-opacity="0"/>
</linearGradient>
<linearGradient id="paint21_linear_2_4539" x1="188.599" y1="108.186" x2="182.788" y2="114.47" gradientUnits="userSpaceOnUse">
<stop offset="0.0200484" stop-color="#C29217"/>
<stop offset="0.389877" stop-color="#FFE605" stop-opacity="0.742865"/>
<stop offset="0.666667" stop-color="#C29217"/>
<stop offset="0.855158" stop-color="#FFE600"/>
<stop offset="1" stop-color="#FFE712" stop-opacity="0"/>
</linearGradient>
<linearGradient id="paint22_linear_2_4539" x1="188.227" y1="103.86" x2="182.416" y2="110.144" gradientUnits="userSpaceOnUse">
<stop offset="0.0200484" stop-color="#C29217"/>
<stop offset="0.389877" stop-color="#FFE605" stop-opacity="0.742865"/>
<stop offset="0.666667" stop-color="#C29217"/>
<stop offset="0.855158" stop-color="#FFE600"/>
<stop offset="1" stop-color="#FFE712" stop-opacity="0"/>
</linearGradient>
<linearGradient id="paint23_linear_2_4539" x1="188.385" y1="99.5225" x2="182.573" y2="105.806" gradientUnits="userSpaceOnUse">
<stop offset="0.0200484" stop-color="#C29217"/>
<stop offset="0.389877" stop-color="#FFE605" stop-opacity="0.742865"/>
<stop offset="0.666667" stop-color="#C29217"/>
<stop offset="0.855158" stop-color="#FFE600"/>
<stop offset="1" stop-color="#FFE712" stop-opacity="0"/>
</linearGradient>
<linearGradient id="paint24_linear_2_4539" x1="187.846" y1="94.9327" x2="182.035" y2="101.217" gradientUnits="userSpaceOnUse">
<stop offset="0.0200484" stop-color="#C29217"/>
<stop offset="0.389877" stop-color="#FFE605" stop-opacity="0.742865"/>
<stop offset="0.666667" stop-color="#C29217"/>
<stop offset="0.855158" stop-color="#FFE600"/>
<stop offset="1" stop-color="#FFE712" stop-opacity="0"/>
</linearGradient>
<linearGradient id="paint25_linear_2_4539" x1="187.049" y1="90.3453" x2="181.237" y2="96.6292" gradientUnits="userSpaceOnUse">
<stop offset="0.0200484" stop-color="#C29217"/>
<stop offset="0.389877" stop-color="#FFE605" stop-opacity="0.742865"/>
<stop offset="0.666667" stop-color="#C29217"/>
<stop offset="0.855158" stop-color="#FFE600"/>
<stop offset="1" stop-color="#FFE712" stop-opacity="0"/>
</linearGradient>
<linearGradient id="paint26_linear_2_4539" x1="185.67" y1="86.5826" x2="179.859" y2="92.8665" gradientUnits="userSpaceOnUse">
<stop offset="0.0200484" stop-color="#C29217"/>
<stop offset="0.389877" stop-color="#FFE605" stop-opacity="0.742865"/>
<stop offset="0.666667" stop-color="#C29217"/>
<stop offset="0.855158" stop-color="#FFE600"/>
<stop offset="1" stop-color="#FFE712" stop-opacity="0"/>
</linearGradient>
<linearGradient id="paint27_linear_2_4539" x1="183.861" y1="83.2076" x2="178.05" y2="89.4915" gradientUnits="userSpaceOnUse">
<stop offset="0.0200484" stop-color="#C29217"/>
<stop offset="0.389877" stop-color="#FFE605" stop-opacity="0.742865"/>
<stop offset="0.666667" stop-color="#C29217"/>
<stop offset="0.855158" stop-color="#FFE600"/>
<stop offset="1" stop-color="#FFE712" stop-opacity="0"/>
</linearGradient>
<linearGradient id="paint28_linear_2_4539" x1="182.561" y1="79.2593" x2="176.75" y2="85.5433" gradientUnits="userSpaceOnUse">
<stop offset="0.0200484" stop-color="#C29217"/>
<stop offset="0.389877" stop-color="#FFE605" stop-opacity="0.742865"/>
<stop offset="0.666667" stop-color="#C29217"/>
<stop offset="0.855158" stop-color="#FFE600"/>
<stop offset="1" stop-color="#FFE712" stop-opacity="0"/>
</linearGradient>
<linearGradient id="paint29_linear_2_4539" x1="180.095" y1="76.2574" x2="174.283" y2="82.5413" gradientUnits="userSpaceOnUse">
<stop offset="0.0200484" stop-color="#C29217"/>
<stop offset="0.389877" stop-color="#FFE605" stop-opacity="0.742865"/>
<stop offset="0.666667" stop-color="#C29217"/>
<stop offset="0.855158" stop-color="#FFE600"/>
<stop offset="1" stop-color="#FFE712" stop-opacity="0"/>
</linearGradient>
<linearGradient id="paint30_linear_2_4539" x1="178.279" y1="72.503" x2="172.468" y2="78.7869" gradientUnits="userSpaceOnUse">
<stop offset="0.0200484" stop-color="#C29217"/>
<stop offset="0.389877" stop-color="#FFE605" stop-opacity="0.742865"/>
<stop offset="0.666667" stop-color="#C29217"/>
<stop offset="0.855158" stop-color="#FFE600"/>
<stop offset="1" stop-color="#FFE712" stop-opacity="0"/>
</linearGradient>
<linearGradient id="paint31_linear_2_4539" x1="176.682" y1="69.19" x2="170.871" y2="75.4739" gradientUnits="userSpaceOnUse">
<stop offset="0.0200484" stop-color="#C29217"/>
<stop offset="0.389877" stop-color="#FFE605" stop-opacity="0.742865"/>
<stop offset="0.666667" stop-color="#C29217"/>
<stop offset="0.855158" stop-color="#FFE600"/>
<stop offset="1" stop-color="#FFE712" stop-opacity="0"/>
</linearGradient>
<linearGradient id="paint32_linear_2_4539" x1="58.7659" y1="77.5071" x2="67.7879" y2="78.4875" gradientUnits="userSpaceOnUse">
<stop offset="0.0200484" stop-color="#C29217"/>
<stop offset="0.389877" stop-color="#FFE605" stop-opacity="0.742865"/>
<stop offset="0.666667" stop-color="#C29217"/>
<stop offset="0.855158" stop-color="#FFE600"/>
<stop offset="1" stop-color="#FFE712" stop-opacity="0"/>
</linearGradient>
<linearGradient id="paint33_linear_2_4539" x1="57.8124" y1="82.3381" x2="66.5012" y2="81.3408" gradientUnits="userSpaceOnUse">
<stop offset="0.0200484" stop-color="#C29217"/>
<stop offset="0.389877" stop-color="#FFE605" stop-opacity="0.742865"/>
<stop offset="0.666667" stop-color="#C29217"/>
<stop offset="0.855158" stop-color="#FFE600"/>
<stop offset="1" stop-color="#FFE712" stop-opacity="0"/>
</linearGradient>
<linearGradient id="paint34_linear_2_4539" x1="55.973" y1="86.8573" x2="64.5232" y2="85.0672" gradientUnits="userSpaceOnUse">
<stop offset="0.0200484" stop-color="#C29217"/>
<stop offset="0.389877" stop-color="#FFE605" stop-opacity="0.742865"/>
<stop offset="0.666667" stop-color="#C29217"/>
<stop offset="0.855158" stop-color="#FFE600"/>
<stop offset="1" stop-color="#FFE712" stop-opacity="0"/>
</linearGradient>
<linearGradient id="paint35_linear_2_4539" x1="54.6998" y1="91.6634" x2="62.9239" y2="88.7886" gradientUnits="userSpaceOnUse">
<stop offset="0.0200484" stop-color="#C29217"/>
<stop offset="0.389877" stop-color="#FFE605" stop-opacity="0.742865"/>
<stop offset="0.666667" stop-color="#C29217"/>
<stop offset="0.855158" stop-color="#FFE600"/>
<stop offset="1" stop-color="#FFE712" stop-opacity="0"/>
</linearGradient>
<linearGradient id="paint36_linear_2_4539" x1="53.9019" y1="95.742" x2="62.126" y2="92.8672" gradientUnits="userSpaceOnUse">
<stop offset="0.0200484" stop-color="#C29217"/>
<stop offset="0.389877" stop-color="#FFE605" stop-opacity="0.742865"/>
<stop offset="0.666667" stop-color="#C29217"/>
<stop offset="0.855158" stop-color="#FFE600"/>
<stop offset="1" stop-color="#FFE712" stop-opacity="0"/>
</linearGradient>
<linearGradient id="paint37_linear_2_4539" x1="53.1031" y1="100.329" x2="61.3272" y2="97.4546" gradientUnits="userSpaceOnUse">
<stop offset="0.0200484" stop-color="#C29217"/>
<stop offset="0.389877" stop-color="#FFE605" stop-opacity="0.742865"/>
<stop offset="0.666667" stop-color="#C29217"/>
<stop offset="0.855158" stop-color="#FFE600"/>
<stop offset="1" stop-color="#FFE712" stop-opacity="0"/>
</linearGradient>
<linearGradient id="paint38_linear_2_4539" x1="52.5728" y1="104.662" x2="60.7969" y2="101.788" gradientUnits="userSpaceOnUse">
<stop offset="0.0200484" stop-color="#C29217"/>
<stop offset="0.389877" stop-color="#FFE605" stop-opacity="0.742865"/>
<stop offset="0.666667" stop-color="#C29217"/>
<stop offset="0.855158" stop-color="#FFE600"/>
<stop offset="1" stop-color="#FFE712" stop-opacity="0"/>
</linearGradient>
<linearGradient id="paint39_linear_2_4539" x1="52.5728" y1="108.741" x2="60.7969" y2="105.866" gradientUnits="userSpaceOnUse">
<stop offset="0.0200484" stop-color="#C29217"/>
<stop offset="0.389877" stop-color="#FFE605" stop-opacity="0.742865"/>
<stop offset="0.666667" stop-color="#C29217"/>
<stop offset="0.855158" stop-color="#FFE600"/>
<stop offset="1" stop-color="#FFE712" stop-opacity="0"/>
</linearGradient>
<linearGradient id="paint40_linear_2_4539" x1="52.94" y1="112.383" x2="61.1641" y2="109.508" gradientUnits="userSpaceOnUse">
<stop offset="0.0200484" stop-color="#C29217"/>
<stop offset="0.389877" stop-color="#FFE605" stop-opacity="0.742865"/>
<stop offset="0.666667" stop-color="#C29217"/>
<stop offset="0.855158" stop-color="#FFE600"/>
<stop offset="1" stop-color="#FFE712" stop-opacity="0"/>
</linearGradient>
<linearGradient id="paint41_linear_2_4539" x1="52.8384" y1="116.897" x2="61.0625" y2="114.023" gradientUnits="userSpaceOnUse">
<stop offset="0.0200484" stop-color="#C29217"/>
<stop offset="0.389877" stop-color="#FFE605" stop-opacity="0.742865"/>
<stop offset="0.666667" stop-color="#C29217"/>
<stop offset="0.855158" stop-color="#FFE600"/>
<stop offset="1" stop-color="#FFE712" stop-opacity="0"/>
</linearGradient>
<linearGradient id="paint42_linear_2_4539" x1="106.818" y1="42.2246" x2="109.113" y2="50.3248" gradientUnits="userSpaceOnUse">
<stop offset="0.0200484" stop-color="#C29217"/>
<stop offset="0.389877" stop-color="#FFE605" stop-opacity="0.742865"/>
<stop offset="0.666667" stop-color="#C29217"/>
<stop offset="0.855158" stop-color="#FFE600"/>
<stop offset="1" stop-color="#FFE712" stop-opacity="0"/>
</linearGradient>
<linearGradient id="paint43_linear_2_4539" x1="101.858" y1="43.5846" x2="105.75" y2="51.1059" gradientUnits="userSpaceOnUse">
<stop offset="0.0200484" stop-color="#C29217"/>
<stop offset="0.389877" stop-color="#FFE605" stop-opacity="0.742865"/>
<stop offset="0.666667" stop-color="#C29217"/>
<stop offset="0.855158" stop-color="#FFE600"/>
<stop offset="1" stop-color="#FFE712" stop-opacity="0"/>
</linearGradient>
<linearGradient id="paint44_linear_2_4539" x1="97.165" y1="44.6694" x2="101.86" y2="51.7584" gradientUnits="userSpaceOnUse">
<stop offset="0.0200484" stop-color="#C29217"/>
<stop offset="0.389877" stop-color="#FFE605" stop-opacity="0.742865"/>
<stop offset="0.666667" stop-color="#C29217"/>
<stop offset="0.855158" stop-color="#FFE600"/>
<stop offset="1" stop-color="#FFE712" stop-opacity="0"/>
</linearGradient>
<linearGradient id="paint45_linear_2_4539" x1="92.5578" y1="47.0359" x2="98.3431" y2="53.3417" gradientUnits="userSpaceOnUse">
<stop offset="0.0200484" stop-color="#C29217"/>
<stop offset="0.389877" stop-color="#FFE605" stop-opacity="0.742865"/>
<stop offset="0.666667" stop-color="#C29217"/>
<stop offset="0.855158" stop-color="#FFE600"/>
<stop offset="1" stop-color="#FFE712" stop-opacity="0"/>
</linearGradient>
<linearGradient id="paint46_linear_2_4539" x1="87.9451" y1="49.1539" x2="94.3778" y2="54.8537" gradientUnits="userSpaceOnUse">
<stop offset="0.0200484" stop-color="#C29217"/>
<stop offset="0.389877" stop-color="#FFE605" stop-opacity="0.742865"/>
<stop offset="0.666667" stop-color="#C29217"/>
<stop offset="0.855158" stop-color="#FFE600"/>
<stop offset="1" stop-color="#FFE712" stop-opacity="0"/>
</linearGradient>
<linearGradient id="paint47_linear_2_4539" x1="83.4637" y1="50.8995" x2="90.3855" y2="56.0444" gradientUnits="userSpaceOnUse">
<stop offset="0.0200484" stop-color="#C29217"/>
<stop offset="0.389877" stop-color="#FFE605" stop-opacity="0.742865"/>
<stop offset="0.666667" stop-color="#C29217"/>
<stop offset="0.855158" stop-color="#FFE600"/>
<stop offset="1" stop-color="#FFE712" stop-opacity="0"/>
</linearGradient>
<linearGradient id="paint48_linear_2_4539" x1="79.7767" y1="53.2055" x2="86.729" y2="58.3124" gradientUnits="userSpaceOnUse">
<stop offset="0.0200484" stop-color="#C29217"/>
<stop offset="0.389877" stop-color="#FFE605" stop-opacity="0.742865"/>
<stop offset="0.666667" stop-color="#C29217"/>
<stop offset="0.855158" stop-color="#FFE600"/>
<stop offset="1" stop-color="#FFE712" stop-opacity="0"/>
</linearGradient>
<linearGradient id="paint49_linear_2_4539" x1="75.5847" y1="55.923" x2="83.0071" y2="60.3783" gradientUnits="userSpaceOnUse">
<stop offset="0.0200484" stop-color="#C29217"/>
<stop offset="0.389877" stop-color="#FFE605" stop-opacity="0.742865"/>
<stop offset="0.666667" stop-color="#C29217"/>
<stop offset="0.855158" stop-color="#FFE600"/>
<stop offset="1" stop-color="#FFE712" stop-opacity="0"/>
</linearGradient>
<linearGradient id="paint50_linear_2_4539" x1="72.3972" y1="58.9816" x2="79.8196" y2="63.4369" gradientUnits="userSpaceOnUse">
<stop offset="0.0200484" stop-color="#C29217"/>
<stop offset="0.389877" stop-color="#FFE605" stop-opacity="0.742865"/>
<stop offset="0.666667" stop-color="#C29217"/>
<stop offset="0.855158" stop-color="#FFE600"/>
<stop offset="1" stop-color="#FFE712" stop-opacity="0"/>
</linearGradient>
<linearGradient id="paint51_linear_2_4539" x1="69.4724" y1="62.2946" x2="76.8948" y2="66.7499" gradientUnits="userSpaceOnUse">
<stop offset="0.0200484" stop-color="#C29217"/>
<stop offset="0.389877" stop-color="#FFE605" stop-opacity="0.742865"/>
<stop offset="0.666667" stop-color="#C29217"/>
<stop offset="0.855158" stop-color="#FFE600"/>
<stop offset="1" stop-color="#FFE712" stop-opacity="0"/>
</linearGradient>
<linearGradient id="paint52_linear_2_4539" x1="67.3484" y1="65.6091" x2="74.7708" y2="70.0643" gradientUnits="userSpaceOnUse">
<stop offset="0.0200484" stop-color="#C29217"/>
<stop offset="0.389877" stop-color="#FFE605" stop-opacity="0.742865"/>
<stop offset="0.666667" stop-color="#C29217"/>
<stop offset="0.855158" stop-color="#FFE600"/>
<stop offset="1" stop-color="#FFE712" stop-opacity="0"/>
</linearGradient>
<linearGradient id="paint53_linear_2_4539" x1="64.6358" y1="69.3005" x2="72.5848" y2="72.8183" gradientUnits="userSpaceOnUse">
<stop offset="0.0200484" stop-color="#C29217"/>
<stop offset="0.389877" stop-color="#FFE605" stop-opacity="0.742865"/>
<stop offset="0.666667" stop-color="#C29217"/>
<stop offset="0.855158" stop-color="#FFE600"/>
<stop offset="1" stop-color="#FFE712" stop-opacity="0"/>
</linearGradient>
<linearGradient id="paint54_linear_2_4539" x1="60.7192" y1="72.9757" x2="69.0697" y2="77.346" gradientUnits="userSpaceOnUse">
<stop offset="0.0200484" stop-color="#C29217"/>
<stop offset="0.389877" stop-color="#FFE605" stop-opacity="0.742865"/>
<stop offset="0.666667" stop-color="#C29217"/>
<stop offset="0.855158" stop-color="#FFE600"/>
<stop offset="1" stop-color="#FFE712" stop-opacity="0"/>
</linearGradient>
<linearGradient id="paint55_linear_2_4539" x1="119.681" y1="118" x2="119.681" y2="191.137" gradientUnits="userSpaceOnUse">
<stop stop-color="#331E19"/>
<stop offset="0.760417" stop-color="#9D510A" stop-opacity="0.97"/>
</linearGradient>
<linearGradient id="paint56_linear_2_4539" x1="119.854" y1="127.416" x2="119.854" y2="192.411" gradientUnits="userSpaceOnUse">
<stop stop-color="#2DA304"/>
<stop offset="1" stop-color="#55B533" stop-opacity="0"/>
</linearGradient>
</defs>
</svg>
